<?xml version="1.0" encoding="utf-8"?>
<!-- Generator: Adobe Illustrator 27.7.0, SVG Export Plug-In . SVG Version: 6.00 Build 0)  -->
<svg version="1.1" id="Layer_1" xmlns="http://www.w3.org/2000/svg" xmlns:xlink="http://www.w3.org/1999/xlink" x="0px" y="0px"
	 viewBox="0 0 188 696" style="enable-background:new 0 0 188 696;" xml:space="preserve">
<style type="text/css">
	.st0{fill:#E30513;}
</style>
<path class="st0" d="M24.6,15.5c0,0-2,6.1,0.6,13.3c2.2,4.8,3.9,5.9,5.7,7.4c1.6,1.3,5.2,3.3,7,7.2c1.8,4,0.5,8.5-2.8,10.3
	c-3.2,1.8-6.8,0.8-6.8,0.8s-8.1-1.4-10.7-14.3C14.9,27.4,23.2,17.4,24.6,15.5z"/>
<path class="st0" d="M42.1,0c0,0-15.8,8-16.5,17.9c-0.7,9.9,3.5,14.2,5.4,15.9c1.9,1.7,4.2,3.1,6.6,5.8c3.7,4.1,3.7,10.5,0.4,14.6
	c0,0,12-4.7,12-16.4c0-3.1-1.7-8.7-8.8-17.7C33.9,11,39.7,1.3,42.1,0"/>
<path class="st0" d="M70.5,15.5c0,0-2,6.1,0.6,13.3c2.2,4.8,3.9,5.9,5.7,7.4c1.6,1.3,5.2,3.3,7,7.2c1.8,4,0.5,8.5-2.8,10.3
	c-3.2,1.8-6.8,0.8-6.8,0.8s-8.1-1.4-10.7-14.3C60.8,27.4,69.2,17.4,70.5,15.5z"/>
<path class="st0" d="M88,0c0,0-15.8,8-16.5,17.9c-0.7,9.9,3.5,14.2,5.4,15.9c1.9,1.7,4.2,3.1,6.6,5.8c3.7,4.1,3.7,10.5,0.4,14.6
	c0,0,12-4.7,12-16.4c0-3.1-1.7-8.7-8.8-17.7C79.9,11,85.6,1.3,88,0"/>
<path class="st0" d="M116.4,15.5c0,0-2,6.1,0.6,13.3c2.2,4.8,3.9,5.9,5.7,7.4c1.6,1.3,5.2,3.3,7,7.2c1.8,4,0.5,8.5-2.8,10.3
	c-3.2,1.8-6.8,0.8-6.8,0.8s-8.1-1.4-10.7-14.3C106.7,27.4,115.1,17.4,116.4,15.5z"/>
<path class="st0" d="M133.9,0c0,0-15.8,8-16.5,17.9c-0.7,9.9,3.5,14.2,5.4,15.9c1.9,1.7,4.2,3.1,6.6,5.8c3.7,4.1,3.7,10.5,0.4,14.6
	c0,0,12-4.7,12-16.4c0-3.1-1.7-8.7-8.8-17.7C125.8,11,131.6,1.3,133.9,0"/>
<path class="st0" d="M162.4,15.5c0,0-2,6.1,0.6,13.3c2.2,4.8,3.9,5.9,5.7,7.4c1.6,1.3,5.2,3.3,7,7.2c1.8,4,0.5,8.5-2.8,10.3
	c-3.2,1.8-6.8,0.8-6.8,0.8s-8.1-1.4-10.7-14.3C152.7,27.4,161,17.4,162.4,15.5z"/>
<path class="st0" d="M179.9,0c0,0-15.8,8-16.5,17.9c-0.7,9.9,3.4,14.2,5.4,15.9c1.9,1.7,4.2,3.1,6.6,5.8c3.7,4.1,3.7,10.5,0.4,14.6
	c0,0,12-4.7,12-16.4c0-3.1-1.7-8.7-8.8-17.7C171.7,11,177.5,1.3,179.9,0"/>
<path class="st0" d="M163.2,102.4c0,0,2-6.1-0.6-13.3c-2.2-4.8-3.9-5.9-5.7-7.4c-1.6-1.3-5.2-3.3-7-7.2c-1.8-4-0.5-8.5,2.8-10.3
	c3.2-1.8,6.8-0.8,6.8-0.8s8.1,1.4,10.7,14.3C172.9,90.5,164.5,100.5,163.2,102.4z"/>
<path class="st0" d="M145.7,117.9c0,0,15.8-8,16.5-17.9c0.7-9.9-3.5-14.2-5.4-15.9c-1.9-1.7-4.2-3.1-6.6-5.8
	c-3.7-4.1-3.7-10.5-0.4-14.6c0,0-12,4.7-12,16.4c0,3.1,1.7,8.7,8.8,17.7C153.8,106.8,148,116.6,145.7,117.9"/>
<path class="st0" d="M117.2,102.4c0,0,2-6.1-0.6-13.3c-2.2-4.8-3.9-5.9-5.7-7.4c-1.6-1.3-5.2-3.3-7-7.2c-1.8-4-0.5-8.5,2.8-10.3
	c3.2-1.8,6.8-0.8,6.8-0.8s8.1,1.4,10.7,14.3C127,90.5,118.6,100.5,117.2,102.4z"/>
<path class="st0" d="M99.7,117.9c0,0,15.8-8,16.5-17.9c0.7-9.9-3.5-14.2-5.4-15.9c-1.9-1.7-4.2-3.1-6.6-5.8
	c-3.7-4.1-3.7-10.5-0.4-14.6c0,0-12,4.7-12,16.4c0,3.1,1.7,8.7,8.8,17.7C107.9,106.8,102.1,116.6,99.7,117.9"/>
<path class="st0" d="M71.3,102.4c0,0,2-6.1-0.6-13.3c-2.2-4.8-3.9-5.9-5.7-7.4c-1.6-1.3-5.2-3.3-7-7.2c-1.8-4-0.5-8.5,2.8-10.3
	c3.2-1.8,6.8-0.8,6.8-0.8s8.1,1.4,10.7,14.3C81,90.5,72.6,100.5,71.3,102.4z"/>
<path class="st0" d="M53.8,117.9c0,0,15.8-8,16.5-17.9c0.7-9.9-3.5-14.2-5.4-15.9c-1.9-1.7-4.2-3.1-6.6-5.8
	c-3.7-4.1-3.7-10.5-0.4-14.6c0,0-12,4.7-12,16.4c0,3.1,1.7,8.7,8.8,17.7C61.9,106.8,56.2,116.6,53.8,117.9"/>
<path class="st0" d="M25.4,102.4c0,0,2-6.1-0.6-13.3c-2.2-4.8-3.9-5.9-5.7-7.4c-1.6-1.3-5.2-3.3-7-7.2c-1.8-4-0.5-8.5,2.8-10.3
	c3.2-1.8,6.8-0.8,6.8-0.8s8.1,1.4,10.7,14.3C35.1,90.5,26.7,100.5,25.4,102.4z"/>
<path class="st0" d="M7.9,117.9c0,0,15.8-8,16.5-17.9c0.7-9.9-3.5-14.2-5.4-15.9c-1.9-1.7-4.2-3.1-6.6-5.8
	C8.6,74.2,8.7,67.8,12,63.6c0,0-12,4.7-12,16.4c0,3.1,1.7,8.7,8.8,17.7C16,106.8,10.2,116.6,7.9,117.9"/>
<path class="st0" d="M163.2,216.4c0,0,2-6.1-0.6-13.3c-2.2-4.8-3.9-5.9-5.7-7.4c-1.6-1.3-5.2-3.3-7-7.2c-1.8-4-0.5-8.5,2.8-10.3
	c3.2-1.8,6.8-0.8,6.8-0.8s8.1,1.4,10.7,14.3C172.9,204.5,164.5,214.5,163.2,216.4z"/>
<path class="st0" d="M145.7,231.9c0,0,15.8-8,16.5-17.9c0.7-9.9-3.5-14.2-5.4-15.9c-1.9-1.7-4.2-3.1-6.6-5.8
	c-3.7-4.1-3.7-10.5-0.4-14.6c0,0-12,4.7-12,16.4c0,3.1,1.7,8.7,8.8,17.7C153.8,220.8,148,230.6,145.7,231.9"/>
<path class="st0" d="M117.2,216.4c0,0,2-6.1-0.6-13.3c-2.2-4.8-3.9-5.9-5.7-7.4c-1.6-1.3-5.2-3.3-7-7.2c-1.8-4-0.5-8.5,2.8-10.3
	c3.2-1.8,6.8-0.8,6.8-0.8s8.1,1.4,10.7,14.3C127,204.5,118.6,214.5,117.2,216.4z"/>
<path class="st0" d="M99.7,231.9c0,0,15.8-8,16.5-17.9c0.7-9.9-3.5-14.2-5.4-15.9c-1.9-1.7-4.2-3.1-6.6-5.8
	c-3.7-4.1-3.7-10.5-0.4-14.6c0,0-12,4.7-12,16.4c0,3.1,1.7,8.7,8.8,17.7C107.9,220.8,102.1,230.6,99.7,231.9"/>
<path class="st0" d="M71.3,216.4c0,0,2-6.1-0.6-13.3c-2.2-4.8-3.9-5.9-5.7-7.4c-1.6-1.3-5.2-3.3-7-7.2c-1.8-4-0.5-8.5,2.8-10.3
	c3.2-1.8,6.8-0.8,6.8-0.8s8.1,1.4,10.7,14.3C81,204.5,72.6,214.5,71.3,216.4z"/>
<path class="st0" d="M53.8,231.9c0,0,15.8-8,16.5-17.9c0.7-9.9-3.5-14.2-5.4-15.9c-1.9-1.7-4.2-3.1-6.6-5.8
	c-3.7-4.1-3.7-10.5-0.4-14.6c0,0-12,4.7-12,16.4c0,3.1,1.7,8.7,8.8,17.7C61.9,220.8,56.2,230.6,53.8,231.9"/>
<path class="st0" d="M25.4,216.4c0,0,2-6.1-0.6-13.3c-2.2-4.8-3.9-5.9-5.7-7.4c-1.6-1.3-5.2-3.3-7-7.2c-1.8-4-0.5-8.5,2.8-10.3
	c3.2-1.8,6.8-0.8,6.8-0.8s8.1,1.4,10.7,14.3C35.1,204.5,26.7,214.5,25.4,216.4z"/>
<path class="st0" d="M7.9,231.9c0,0,15.8-8,16.5-17.9c0.7-9.9-3.5-14.2-5.4-15.9c-1.9-1.7-4.2-3.1-6.6-5.8
	c-3.7-4.1-3.7-10.5-0.4-14.6c0,0-12,4.7-12,16.4c0,3.1,1.7,8.7,8.8,17.7C16,220.8,10.2,230.6,7.9,231.9"/>
<path class="st0" d="M24.6,129.5c0,0-2,6.1,0.6,13.3c2.2,4.8,3.9,5.9,5.7,7.4c1.6,1.3,5.2,3.3,7,7.2c1.8,4,0.5,8.5-2.8,10.3
	c-3.2,1.8-6.8,0.8-6.8,0.8s-8.1-1.4-10.7-14.3C14.9,141.4,23.2,131.4,24.6,129.5z"/>
<path class="st0" d="M42.1,114c0,0-15.8,8-16.5,17.9c-0.7,9.9,3.5,14.2,5.4,15.9c1.9,1.7,4.2,3.1,6.6,5.8c3.7,4.1,3.7,10.5,0.4,14.6
	c0,0,12-4.7,12-16.4c0-3.1-1.7-8.7-8.8-17.7C33.9,125,39.7,115.3,42.1,114"/>
<path class="st0" d="M70.5,129.5c0,0-2,6.1,0.6,13.3c2.2,4.8,3.9,5.9,5.7,7.4c1.6,1.3,5.2,3.3,7,7.2c1.8,4,0.5,8.5-2.8,10.3
	c-3.2,1.8-6.8,0.8-6.8,0.8s-8.1-1.4-10.7-14.3C60.8,141.4,69.2,131.4,70.5,129.5z"/>
<path class="st0" d="M88,114c0,0-15.8,8-16.5,17.9c-0.7,9.9,3.5,14.2,5.4,15.9c1.9,1.7,4.2,3.1,6.6,5.8c3.7,4.1,3.7,10.5,0.4,14.6
	c0,0,12-4.7,12-16.4c0-3.1-1.7-8.7-8.8-17.7C79.9,125,85.6,115.3,88,114"/>
<path class="st0" d="M116.4,129.5c0,0-2,6.1,0.6,13.3c2.2,4.8,3.9,5.9,5.7,7.4c1.6,1.3,5.2,3.3,7,7.2c1.8,4,0.5,8.5-2.8,10.3
	c-3.2,1.8-6.8,0.8-6.8,0.8s-8.1-1.4-10.7-14.3C106.7,141.4,115.1,131.4,116.4,129.5z"/>
<path class="st0" d="M133.9,114c0,0-15.8,8-16.5,17.9c-0.7,9.9,3.5,14.2,5.4,15.9c1.9,1.7,4.2,3.1,6.6,5.8
	c3.7,4.1,3.7,10.5,0.4,14.6c0,0,12-4.7,12-16.4c0-3.1-1.7-8.7-8.8-17.7C125.8,125,131.6,115.3,133.9,114"/>
<path class="st0" d="M162.4,129.5c0,0-2,6.1,0.6,13.3c2.2,4.8,3.9,5.9,5.7,7.4c1.6,1.3,5.2,3.3,7,7.2c1.8,4,0.5,8.5-2.8,10.3
	c-3.2,1.8-6.8,0.8-6.8,0.8s-8.1-1.4-10.7-14.3C152.7,141.4,161,131.4,162.4,129.5z"/>
<path class="st0" d="M179.9,114c0,0-15.8,8-16.5,17.9c-0.7,9.9,3.4,14.2,5.4,15.9c1.9,1.7,4.2,3.1,6.6,5.8
	c3.7,4.1,3.7,10.5,0.4,14.6c0,0,12-4.7,12-16.4c0-3.1-1.7-8.7-8.8-17.7C171.7,125,177.5,115.3,179.9,114"/>
<path class="st0" d="M24.6,247.5c0,0-2,6.1,0.6,13.3c2.2,4.8,3.9,5.9,5.7,7.4c1.6,1.3,5.2,3.3,7,7.2c1.8,4,0.5,8.5-2.8,10.3
	c-3.2,1.8-6.8,0.8-6.8,0.8s-8.1-1.4-10.7-14.3C14.9,259.4,23.2,249.4,24.6,247.5z"/>
<path class="st0" d="M42.1,232c0,0-15.8,8-16.5,17.9c-0.7,9.9,3.5,14.2,5.4,15.9c1.9,1.7,4.2,3.1,6.6,5.8c3.7,4.1,3.7,10.5,0.4,14.6
	c0,0,12-4.7,12-16.4c0-3.1-1.7-8.7-8.8-17.7C33.9,243,39.7,233.3,42.1,232"/>
<path class="st0" d="M70.5,247.5c0,0-2,6.1,0.6,13.3c2.2,4.8,3.9,5.9,5.7,7.4c1.6,1.3,5.2,3.3,7,7.2c1.8,4,0.5,8.5-2.8,10.3
	c-3.2,1.8-6.8,0.8-6.8,0.8s-8.1-1.4-10.7-14.3C60.8,259.4,69.2,249.4,70.5,247.5z"/>
<path class="st0" d="M88,232c0,0-15.8,8-16.5,17.9c-0.7,9.9,3.5,14.2,5.4,15.9c1.9,1.7,4.2,3.1,6.6,5.8c3.7,4.1,3.7,10.5,0.4,14.6
	c0,0,12-4.7,12-16.4c0-3.1-1.7-8.7-8.8-17.7C79.9,243,85.6,233.3,88,232"/>
<path class="st0" d="M116.4,247.5c0,0-2,6.1,0.6,13.3c2.2,4.8,3.9,5.9,5.7,7.4c1.6,1.3,5.2,3.3,7,7.2c1.8,4,0.5,8.5-2.8,10.3
	c-3.2,1.8-6.8,0.8-6.8,0.8s-8.1-1.4-10.7-14.3C106.7,259.4,115.1,249.4,116.4,247.5z"/>
<path class="st0" d="M133.9,232c0,0-15.8,8-16.5,17.9c-0.7,9.9,3.5,14.2,5.4,15.9c1.9,1.7,4.2,3.1,6.6,5.8
	c3.7,4.1,3.7,10.5,0.4,14.6c0,0,12-4.7,12-16.4c0-3.1-1.7-8.7-8.8-17.7C125.8,243,131.6,233.3,133.9,232"/>
<path class="st0" d="M162.4,247.5c0,0-2,6.1,0.6,13.3c2.2,4.8,3.9,5.9,5.7,7.4c1.6,1.3,5.2,3.3,7,7.2c1.8,4,0.5,8.5-2.8,10.3
	c-3.2,1.8-6.8,0.8-6.8,0.8s-8.1-1.4-10.7-14.3C152.7,259.4,161,249.4,162.4,247.5z"/>
<path class="st0" d="M179.9,232c0,0-15.8,8-16.5,17.9c-0.7,9.9,3.4,14.2,5.4,15.9c1.9,1.7,4.2,3.1,6.6,5.8
	c3.7,4.1,3.7,10.5,0.4,14.6c0,0,12-4.7,12-16.4c0-3.1-1.7-8.7-8.8-17.7C171.7,243,177.5,233.3,179.9,232"/>
<path class="st0" d="M163.2,334.4c0,0,2-6.1-0.6-13.3c-2.2-4.8-3.9-5.9-5.7-7.4c-1.6-1.3-5.2-3.3-7-7.2c-1.8-4-0.5-8.5,2.8-10.3
	c3.2-1.8,6.8-0.8,6.8-0.8s8.1,1.4,10.7,14.3C172.9,322.5,164.5,332.5,163.2,334.4z"/>
<path class="st0" d="M145.7,349.9c0,0,15.8-8,16.5-17.9c0.7-9.9-3.5-14.2-5.4-15.9c-1.9-1.7-4.2-3.1-6.6-5.8
	c-3.7-4.1-3.7-10.5-0.4-14.6c0,0-12,4.7-12,16.4c0,3.1,1.7,8.7,8.8,17.7C153.8,338.8,148,348.6,145.7,349.9"/>
<path class="st0" d="M117.2,334.4c0,0,2-6.1-0.6-13.3c-2.2-4.8-3.9-5.9-5.7-7.4c-1.6-1.3-5.2-3.3-7-7.2c-1.8-4-0.5-8.5,2.8-10.3
	c3.2-1.8,6.8-0.8,6.8-0.8s8.1,1.4,10.7,14.3C127,322.5,118.6,332.5,117.2,334.4z"/>
<path class="st0" d="M99.7,349.9c0,0,15.8-8,16.5-17.9c0.7-9.9-3.5-14.2-5.4-15.9c-1.9-1.7-4.2-3.1-6.6-5.8
	c-3.7-4.1-3.7-10.5-0.4-14.6c0,0-12,4.7-12,16.4c0,3.1,1.7,8.7,8.8,17.7C107.9,338.8,102.1,348.6,99.7,349.9"/>
<path class="st0" d="M71.3,334.4c0,0,2-6.1-0.6-13.3c-2.2-4.8-3.9-5.9-5.7-7.4c-1.6-1.3-5.2-3.3-7-7.2c-1.8-4-0.5-8.5,2.8-10.3
	c3.2-1.8,6.8-0.8,6.8-0.8s8.1,1.4,10.7,14.3C81,322.5,72.6,332.5,71.3,334.4z"/>
<path class="st0" d="M53.8,349.9c0,0,15.8-8,16.5-17.9c0.7-9.9-3.5-14.2-5.4-15.9c-1.9-1.7-4.2-3.1-6.6-5.8
	c-3.7-4.1-3.7-10.5-0.4-14.6c0,0-12,4.7-12,16.4c0,3.1,1.7,8.7,8.8,17.7C61.9,338.8,56.2,348.6,53.8,349.9"/>
<path class="st0" d="M25.4,334.4c0,0,2-6.1-0.6-13.3c-2.2-4.8-3.9-5.9-5.7-7.4c-1.6-1.3-5.2-3.3-7-7.2c-1.8-4-0.5-8.5,2.8-10.3
	c3.2-1.8,6.8-0.8,6.8-0.8s8.1,1.4,10.7,14.3C35.1,322.5,26.7,332.5,25.4,334.4z"/>
<path class="st0" d="M7.9,349.9c0,0,15.8-8,16.5-17.9c0.7-9.9-3.5-14.2-5.4-15.9c-1.9-1.7-4.2-3.1-6.6-5.8
	c-3.7-4.1-3.7-10.5-0.4-14.6c0,0-12,4.7-12,16.4c0,3.1,1.7,8.7,8.8,17.7C16,338.8,10.2,348.6,7.9,349.9"/>
<path class="st0" d="M163.2,448.4c0,0,2-6.1-0.6-13.3c-2.2-4.8-3.9-5.9-5.7-7.4c-1.6-1.3-5.2-3.3-7-7.2c-1.8-4-0.5-8.5,2.8-10.3
	c3.2-1.8,6.8-0.8,6.8-0.8s8.1,1.4,10.7,14.3C172.9,436.5,164.5,446.5,163.2,448.4z"/>
<path class="st0" d="M145.7,463.9c0,0,15.8-8,16.5-17.9c0.7-9.9-3.5-14.2-5.4-15.9c-1.9-1.7-4.2-3.1-6.6-5.8
	c-3.7-4.1-3.7-10.5-0.4-14.6c0,0-12,4.7-12,16.4c0,3.1,1.7,8.7,8.8,17.7C153.8,452.8,148,462.6,145.7,463.9"/>
<path class="st0" d="M117.2,448.4c0,0,2-6.1-0.6-13.3c-2.2-4.8-3.9-5.9-5.7-7.4c-1.6-1.3-5.2-3.3-7-7.2c-1.8-4-0.5-8.5,2.8-10.3
	c3.2-1.8,6.8-0.8,6.8-0.8s8.1,1.4,10.7,14.3C127,436.5,118.6,446.5,117.2,448.4z"/>
<path class="st0" d="M99.7,463.9c0,0,15.8-8,16.5-17.9c0.7-9.9-3.5-14.2-5.4-15.9c-1.9-1.7-4.2-3.1-6.6-5.8
	c-3.7-4.1-3.7-10.5-0.4-14.6c0,0-12,4.7-12,16.4c0,3.1,1.7,8.7,8.8,17.7C107.9,452.8,102.1,462.6,99.7,463.9"/>
<path class="st0" d="M71.3,448.4c0,0,2-6.1-0.6-13.3c-2.2-4.8-3.9-5.9-5.7-7.4c-1.6-1.3-5.2-3.3-7-7.2c-1.8-4-0.5-8.5,2.8-10.3
	c3.2-1.8,6.8-0.8,6.8-0.8s8.1,1.4,10.7,14.3C81,436.5,72.6,446.5,71.3,448.4z"/>
<path class="st0" d="M53.8,463.9c0,0,15.8-8,16.5-17.9c0.7-9.9-3.5-14.2-5.4-15.9c-1.9-1.7-4.2-3.1-6.6-5.8
	c-3.7-4.1-3.7-10.5-0.4-14.6c0,0-12,4.7-12,16.4c0,3.1,1.7,8.7,8.8,17.7C61.9,452.8,56.2,462.6,53.8,463.9"/>
<path class="st0" d="M25.4,448.4c0,0,2-6.1-0.6-13.3c-2.2-4.8-3.9-5.9-5.7-7.4c-1.6-1.3-5.2-3.3-7-7.2c-1.8-4-0.5-8.5,2.8-10.3
	c3.2-1.8,6.8-0.8,6.8-0.8s8.1,1.4,10.7,14.3C35.1,436.5,26.7,446.5,25.4,448.4z"/>
<path class="st0" d="M7.9,463.9c0,0,15.8-8,16.5-17.9c0.7-9.9-3.5-14.2-5.4-15.9c-1.9-1.7-4.2-3.1-6.6-5.8
	c-3.7-4.1-3.7-10.5-0.4-14.6c0,0-12,4.7-12,16.4c0,3.1,1.7,8.7,8.8,17.7C16,452.8,10.2,462.6,7.9,463.9"/>
<path class="st0" d="M24.6,361.5c0,0-2,6.1,0.6,13.3c2.2,4.8,3.9,5.9,5.7,7.4c1.6,1.3,5.2,3.3,7,7.2c1.8,4,0.5,8.5-2.8,10.3
	c-3.2,1.8-6.8,0.8-6.8,0.8s-8.1-1.4-10.7-14.3C14.9,373.4,23.2,363.4,24.6,361.5z"/>
<path class="st0" d="M42.1,346c0,0-15.8,8-16.5,17.9c-0.7,9.9,3.5,14.2,5.4,15.9c1.9,1.7,4.2,3.1,6.6,5.8c3.7,4.1,3.7,10.5,0.4,14.6
	c0,0,12-4.7,12-16.4c0-3.1-1.7-8.7-8.8-17.7C33.9,357,39.7,347.3,42.1,346"/>
<path class="st0" d="M70.5,361.5c0,0-2,6.1,0.6,13.3c2.2,4.8,3.9,5.9,5.7,7.4c1.6,1.3,5.2,3.3,7,7.2c1.8,4,0.5,8.5-2.8,10.3
	c-3.2,1.8-6.8,0.8-6.8,0.8s-8.1-1.4-10.7-14.3C60.8,373.4,69.2,363.4,70.5,361.5z"/>
<path class="st0" d="M88,346c0,0-15.8,8-16.5,17.9c-0.7,9.9,3.5,14.2,5.4,15.9c1.9,1.7,4.2,3.1,6.6,5.8c3.7,4.1,3.7,10.5,0.4,14.6
	c0,0,12-4.7,12-16.4c0-3.1-1.7-8.7-8.8-17.7C79.9,357,85.6,347.3,88,346"/>
<path class="st0" d="M116.4,361.5c0,0-2,6.1,0.6,13.3c2.2,4.8,3.9,5.9,5.7,7.4c1.6,1.3,5.2,3.3,7,7.2c1.8,4,0.5,8.5-2.8,10.3
	c-3.2,1.8-6.8,0.8-6.8,0.8s-8.1-1.4-10.7-14.3C106.7,373.4,115.1,363.4,116.4,361.5z"/>
<path class="st0" d="M133.9,346c0,0-15.8,8-16.5,17.9c-0.7,9.9,3.5,14.2,5.4,15.9c1.9,1.7,4.2,3.1,6.6,5.8
	c3.7,4.1,3.7,10.5,0.4,14.6c0,0,12-4.7,12-16.4c0-3.1-1.7-8.7-8.8-17.7C125.8,357,131.6,347.3,133.9,346"/>
<path class="st0" d="M162.4,361.5c0,0-2,6.1,0.6,13.3c2.2,4.8,3.9,5.9,5.7,7.4c1.6,1.3,5.2,3.3,7,7.2c1.8,4,0.5,8.5-2.8,10.3
	c-3.2,1.8-6.8,0.8-6.8,0.8s-8.1-1.4-10.7-14.3C152.7,373.4,161,363.4,162.4,361.5z"/>
<path class="st0" d="M179.9,346c0,0-15.8,8-16.5,17.9c-0.7,9.9,3.4,14.2,5.4,15.9c1.9,1.7,4.2,3.1,6.6,5.8
	c3.7,4.1,3.7,10.5,0.4,14.6c0,0,12-4.7,12-16.4c0-3.1-1.7-8.7-8.8-17.7C171.7,357,177.5,347.3,179.9,346"/>
<path class="st0" d="M24.6,479.5c0,0-2,6.1,0.6,13.3c2.2,4.8,3.9,5.9,5.7,7.4c1.6,1.3,5.2,3.3,7,7.2c1.8,4,0.5,8.5-2.8,10.3
	c-3.2,1.8-6.8,0.8-6.8,0.8s-8.1-1.4-10.7-14.3C14.9,491.4,23.2,481.4,24.6,479.5z"/>
<path class="st0" d="M42.1,464c0,0-15.8,8-16.5,17.9c-0.7,9.9,3.5,14.2,5.4,15.9c1.9,1.7,4.2,3.1,6.6,5.8c3.7,4.1,3.7,10.5,0.4,14.6
	c0,0,12-4.7,12-16.4c0-3.1-1.7-8.7-8.8-17.7C33.9,475,39.7,465.3,42.1,464"/>
<path class="st0" d="M70.5,479.5c0,0-2,6.1,0.6,13.3c2.2,4.8,3.9,5.9,5.7,7.4c1.6,1.3,5.2,3.3,7,7.2c1.8,4,0.5,8.5-2.8,10.3
	c-3.2,1.8-6.8,0.8-6.8,0.8s-8.1-1.4-10.7-14.3C60.8,491.4,69.2,481.4,70.5,479.5z"/>
<path class="st0" d="M88,464c0,0-15.8,8-16.5,17.9c-0.7,9.9,3.5,14.2,5.4,15.9c1.9,1.7,4.2,3.1,6.6,5.8c3.7,4.1,3.7,10.5,0.4,14.6
	c0,0,12-4.7,12-16.4c0-3.1-1.7-8.7-8.8-17.7C79.9,475,85.6,465.3,88,464"/>
<path class="st0" d="M116.4,479.5c0,0-2,6.1,0.6,13.3c2.2,4.8,3.9,5.9,5.7,7.4c1.6,1.3,5.2,3.3,7,7.2c1.8,4,0.5,8.5-2.8,10.3
	c-3.2,1.8-6.8,0.8-6.8,0.8s-8.1-1.4-10.7-14.3C106.7,491.4,115.1,481.4,116.4,479.5z"/>
<path class="st0" d="M133.9,464c0,0-15.8,8-16.5,17.9c-0.7,9.9,3.5,14.2,5.4,15.9c1.9,1.7,4.2,3.1,6.6,5.8
	c3.7,4.1,3.7,10.5,0.4,14.6c0,0,12-4.7,12-16.4c0-3.1-1.7-8.7-8.8-17.7C125.8,475,131.6,465.3,133.9,464"/>
<path class="st0" d="M162.4,479.5c0,0-2,6.1,0.6,13.3c2.2,4.8,3.9,5.9,5.7,7.4c1.6,1.3,5.2,3.3,7,7.2c1.8,4,0.5,8.5-2.8,10.3
	c-3.2,1.8-6.8,0.8-6.8,0.8s-8.1-1.4-10.7-14.3C152.7,491.4,161,481.4,162.4,479.5z"/>
<path class="st0" d="M179.9,464c0,0-15.8,8-16.5,17.9c-0.7,9.9,3.4,14.2,5.4,15.9c1.9,1.7,4.2,3.1,6.6,5.8
	c3.7,4.1,3.7,10.5,0.4,14.6c0,0,12-4.7,12-16.4c0-3.1-1.7-8.7-8.8-17.7C171.7,475,177.5,465.3,179.9,464"/>
<path class="st0" d="M163.2,566.4c0,0,2-6.1-0.6-13.3c-2.2-4.8-3.9-5.9-5.7-7.4c-1.6-1.3-5.2-3.3-7-7.2c-1.8-4-0.5-8.5,2.8-10.3
	c3.2-1.8,6.8-0.8,6.8-0.8s8.1,1.4,10.7,14.3C172.9,554.5,164.5,564.5,163.2,566.4z"/>
<path class="st0" d="M145.7,581.9c0,0,15.8-8,16.5-17.9c0.7-9.9-3.5-14.2-5.4-15.9c-1.9-1.7-4.2-3.1-6.6-5.8
	c-3.7-4.1-3.7-10.5-0.4-14.6c0,0-12,4.7-12,16.4c0,3.1,1.7,8.7,8.8,17.7C153.8,570.8,148,580.6,145.7,581.9"/>
<path class="st0" d="M117.2,566.4c0,0,2-6.1-0.6-13.3c-2.2-4.8-3.9-5.9-5.7-7.4c-1.6-1.3-5.2-3.3-7-7.2c-1.8-4-0.5-8.5,2.8-10.3
	c3.2-1.8,6.8-0.8,6.8-0.8s8.1,1.4,10.7,14.3C127,554.5,118.6,564.5,117.2,566.4z"/>
<path class="st0" d="M99.7,581.9c0,0,15.8-8,16.5-17.9c0.7-9.9-3.5-14.2-5.4-15.9c-1.9-1.7-4.2-3.1-6.6-5.8
	c-3.7-4.1-3.7-10.5-0.4-14.6c0,0-12,4.7-12,16.4c0,3.1,1.7,8.7,8.8,17.7C107.9,570.8,102.1,580.6,99.7,581.9"/>
<path class="st0" d="M71.3,566.4c0,0,2-6.1-0.6-13.3c-2.2-4.8-3.9-5.9-5.7-7.4c-1.6-1.3-5.2-3.3-7-7.2c-1.8-4-0.5-8.5,2.8-10.3
	c3.2-1.8,6.8-0.8,6.8-0.8s8.1,1.4,10.7,14.3C81,554.5,72.6,564.5,71.3,566.4z"/>
<path class="st0" d="M53.8,581.9c0,0,15.8-8,16.5-17.9c0.7-9.9-3.5-14.2-5.4-15.9c-1.9-1.7-4.2-3.1-6.6-5.8
	c-3.7-4.1-3.7-10.5-0.4-14.6c0,0-12,4.7-12,16.4c0,3.1,1.7,8.7,8.8,17.7C61.9,570.8,56.2,580.6,53.8,581.9"/>
<path class="st0" d="M25.4,566.4c0,0,2-6.1-0.6-13.3c-2.2-4.8-3.9-5.9-5.7-7.4c-1.6-1.3-5.2-3.3-7-7.2c-1.8-4-0.5-8.5,2.8-10.3
	c3.2-1.8,6.8-0.8,6.8-0.8s8.1,1.4,10.7,14.3C35.1,554.5,26.7,564.5,25.4,566.4z"/>
<path class="st0" d="M7.9,581.9c0,0,15.8-8,16.5-17.9c0.7-9.9-3.5-14.2-5.4-15.9c-1.9-1.7-4.2-3.1-6.6-5.8
	c-3.7-4.1-3.7-10.5-0.4-14.6c0,0-12,4.7-12,16.4c0,3.1,1.7,8.7,8.8,17.7C16,570.8,10.2,580.6,7.9,581.9"/>
<path class="st0" d="M163.2,680.4c0,0,2-6.1-0.6-13.3c-2.2-4.8-3.9-5.9-5.7-7.4c-1.6-1.3-5.2-3.3-7-7.2c-1.8-4-0.5-8.5,2.8-10.3
	c3.2-1.8,6.8-0.8,6.8-0.8s8.1,1.4,10.7,14.3C172.9,668.5,164.5,678.5,163.2,680.4z"/>
<path class="st0" d="M145.7,695.9c0,0,15.8-8,16.5-17.9c0.7-9.9-3.5-14.2-5.4-15.9c-1.9-1.7-4.2-3.1-6.6-5.8
	c-3.7-4.1-3.7-10.5-0.4-14.6c0,0-12,4.7-12,16.4c0,3.1,1.7,8.7,8.8,17.7C153.8,684.8,148,694.6,145.7,695.9"/>
<path class="st0" d="M117.2,680.4c0,0,2-6.1-0.6-13.3c-2.2-4.8-3.9-5.9-5.7-7.4c-1.6-1.3-5.2-3.3-7-7.2c-1.8-4-0.5-8.5,2.8-10.3
	c3.2-1.8,6.8-0.8,6.8-0.8s8.1,1.4,10.7,14.3C127,668.5,118.6,678.5,117.2,680.4z"/>
<path class="st0" d="M99.7,695.9c0,0,15.8-8,16.5-17.9c0.7-9.9-3.5-14.2-5.4-15.9c-1.9-1.7-4.2-3.1-6.6-5.8
	c-3.7-4.1-3.7-10.5-0.4-14.6c0,0-12,4.7-12,16.4c0,3.1,1.7,8.7,8.8,17.7C107.9,684.8,102.1,694.6,99.7,695.9"/>
<path class="st0" d="M71.3,680.4c0,0,2-6.1-0.6-13.3c-2.2-4.8-3.9-5.9-5.7-7.4c-1.6-1.3-5.2-3.3-7-7.2c-1.8-4-0.5-8.5,2.8-10.3
	c3.2-1.8,6.8-0.8,6.8-0.8s8.1,1.4,10.7,14.3C81,668.5,72.6,678.5,71.3,680.4z"/>
<path class="st0" d="M53.8,695.9c0,0,15.8-8,16.5-17.9c0.7-9.9-3.5-14.2-5.4-15.9c-1.9-1.7-4.2-3.1-6.6-5.8
	c-3.7-4.1-3.7-10.5-0.4-14.6c0,0-12,4.7-12,16.4c0,3.1,1.7,8.7,8.8,17.7C61.9,684.8,56.2,694.6,53.8,695.9"/>
<path class="st0" d="M25.4,680.4c0,0,2-6.1-0.6-13.3c-2.2-4.8-3.9-5.9-5.7-7.4c-1.6-1.3-5.2-3.3-7-7.2c-1.8-4-0.5-8.5,2.8-10.3
	c3.2-1.8,6.8-0.8,6.8-0.8s8.1,1.4,10.7,14.3C35.1,668.5,26.7,678.5,25.4,680.4z"/>
<path class="st0" d="M7.9,695.9c0,0,15.8-8,16.5-17.9c0.7-9.9-3.5-14.2-5.4-15.9c-1.9-1.7-4.2-3.1-6.6-5.8
	c-3.7-4.1-3.7-10.5-0.4-14.6c0,0-12,4.7-12,16.4c0,3.1,1.7,8.7,8.8,17.7C16,684.8,10.2,694.6,7.9,695.9"/>
<path class="st0" d="M24.6,593.5c0,0-2,6.1,0.6,13.3c2.2,4.8,3.9,5.9,5.7,7.4c1.6,1.3,5.2,3.3,7,7.2c1.8,4,0.5,8.5-2.8,10.3
	c-3.2,1.8-6.8,0.8-6.8,0.8s-8.1-1.4-10.7-14.3C14.9,605.4,23.2,595.4,24.6,593.5z"/>
<path class="st0" d="M42.1,578c0,0-15.8,8-16.5,17.9c-0.7,9.9,3.5,14.2,5.4,15.9c1.9,1.7,4.2,3.1,6.6,5.8c3.7,4.1,3.7,10.5,0.4,14.6
	c0,0,12-4.7,12-16.4c0-3.1-1.7-8.7-8.8-17.7C33.9,589,39.7,579.3,42.1,578"/>
<path class="st0" d="M70.5,593.5c0,0-2,6.1,0.6,13.3c2.2,4.8,3.9,5.9,5.7,7.4c1.6,1.3,5.2,3.3,7,7.2c1.8,4,0.5,8.5-2.8,10.3
	c-3.2,1.8-6.8,0.8-6.8,0.8s-8.1-1.4-10.7-14.3C60.8,605.4,69.2,595.4,70.5,593.5z"/>
<path class="st0" d="M88,578c0,0-15.8,8-16.5,17.9c-0.7,9.9,3.5,14.2,5.4,15.9c1.9,1.7,4.2,3.1,6.6,5.8c3.7,4.1,3.7,10.5,0.4,14.6
	c0,0,12-4.7,12-16.4c0-3.1-1.7-8.7-8.8-17.7C79.9,589,85.6,579.3,88,578"/>
<path class="st0" d="M116.4,593.5c0,0-2,6.1,0.6,13.3c2.2,4.8,3.9,5.9,5.7,7.4c1.6,1.3,5.2,3.3,7,7.2c1.8,4,0.5,8.5-2.8,10.3
	c-3.2,1.8-6.8,0.8-6.8,0.8s-8.1-1.4-10.7-14.3C106.7,605.4,115.1,595.4,116.4,593.5z"/>
<path class="st0" d="M133.9,578c0,0-15.8,8-16.5,17.9c-0.7,9.9,3.5,14.2,5.4,15.9c1.9,1.7,4.2,3.1,6.6,5.8
	c3.7,4.1,3.7,10.5,0.4,14.6c0,0,12-4.7,12-16.4c0-3.1-1.7-8.7-8.8-17.7C125.8,589,131.6,579.3,133.9,578"/>
<path class="st0" d="M162.4,593.5c0,0-2,6.1,0.6,13.3c2.2,4.8,3.9,5.9,5.7,7.4c1.6,1.3,5.2,3.3,7,7.2c1.8,4,0.5,8.5-2.8,10.3
	c-3.2,1.8-6.8,0.8-6.8,0.8s-8.1-1.4-10.7-14.3C152.7,605.4,161,595.4,162.4,593.5z"/>
<path class="st0" d="M179.9,578c0,0-15.8,8-16.5,17.9c-0.7,9.9,3.4,14.2,5.4,15.9c1.9,1.7,4.2,3.1,6.6,5.8
	c3.7,4.1,3.7,10.5,0.4,14.6c0,0,12-4.7,12-16.4c0-3.1-1.7-8.7-8.8-17.7C171.7,589,177.5,579.3,179.9,578"/>
</svg>
