<?xml version="1.0" encoding="utf-8"?>
<!-- Generator: Adobe Illustrator 27.7.0, SVG Export Plug-In . SVG Version: 6.00 Build 0)  -->
<svg version="1.1" id="Layer_1" xmlns="http://www.w3.org/2000/svg" xmlns:xlink="http://www.w3.org/1999/xlink" x="0px" y="0px"
	 viewBox="0 0 188 696" style="enable-background:new 0 0 188 696;" xml:space="preserve">
<style type="text/css">
	.st0{fill:#FFB129;}
</style>
<path class="st0" d="M24.7,15.5c0,0-2,6.1,0.6,13.3c2.2,4.8,3.9,5.9,5.7,7.4c1.6,1.3,5.2,3.3,7,7.2c1.8,4,0.5,8.5-2.8,10.3
	c-3.2,1.8-6.8,0.8-6.8,0.8s-8.1-1.4-10.7-14.3C15,27.4,23.3,17.4,24.7,15.5z"/>
<path class="st0" d="M42.2,0c0,0-15.8,8-16.5,17.9s3.5,14.2,5.4,15.9s4.2,3.1,6.6,5.8c3.7,4.1,3.7,10.5,0.4,14.6c0,0,12-4.7,12-16.4
	c0-3.1-1.7-8.7-8.8-17.7C34,11,39.8,1.3,42.2,0"/>
<path class="st0" d="M70.6,15.5c0,0-2,6.1,0.6,13.3c2.2,4.8,3.9,5.9,5.7,7.4c1.6,1.3,5.2,3.3,7,7.2c1.8,4,0.5,8.5-2.8,10.3
	c-3.2,1.8-6.8,0.8-6.8,0.8s-8.1-1.4-10.7-14.3C60.9,27.4,69.3,17.4,70.6,15.5z"/>
<path class="st0" d="M88.1,0c0,0-15.8,8-16.5,17.9s3.5,14.2,5.4,15.9s4.2,3.1,6.6,5.8c3.7,4.1,3.7,10.5,0.4,14.6c0,0,12-4.7,12-16.4
	c0-3.1-1.7-8.7-8.8-17.7C80,11,85.7,1.3,88.1,0"/>
<path class="st0" d="M116.5,15.5c0,0-2,6.1,0.6,13.3c2.2,4.8,3.9,5.9,5.7,7.4c1.6,1.3,5.2,3.3,7,7.2c1.8,4,0.5,8.5-2.8,10.3
	c-3.2,1.8-6.8,0.8-6.8,0.8s-8.1-1.4-10.7-14.3C106.8,27.4,115.2,17.4,116.5,15.5z"/>
<path class="st0" d="M134,0c0,0-15.8,8-16.5,17.9s3.5,14.2,5.4,15.9s4.2,3.1,6.6,5.8c3.7,4.1,3.7,10.5,0.4,14.6c0,0,12-4.7,12-16.4
	c0-3.1-1.7-8.7-8.8-17.7C125.9,11,131.7,1.3,134,0"/>
<path class="st0" d="M162.5,15.5c0,0-2,6.1,0.6,13.3c2.2,4.8,3.9,5.9,5.7,7.4c1.6,1.3,5.2,3.3,7,7.2c1.8,4,0.5,8.5-2.8,10.3
	c-3.2,1.8-6.8,0.8-6.8,0.8s-8.1-1.4-10.7-14.3C152.8,27.4,161.1,17.4,162.5,15.5z"/>
<path class="st0" d="M180,0c0,0-15.8,8-16.5,17.9s3.4,14.2,5.4,15.9c1.9,1.7,4.2,3.1,6.6,5.8c3.7,4.1,3.7,10.5,0.4,14.6
	c0,0,12-4.7,12-16.4c0-3.1-1.7-8.7-8.8-17.7C171.8,11,177.6,1.3,180,0"/>
<path class="st0" d="M163.3,102.4c0,0,2-6.1-0.6-13.3c-2.2-4.8-3.9-5.9-5.7-7.4c-1.6-1.3-5.2-3.3-7-7.2c-1.8-4-0.5-8.5,2.8-10.3
	c3.2-1.8,6.8-0.8,6.8-0.8s8.1,1.4,10.7,14.3C173,90.5,164.6,100.5,163.3,102.4z"/>
<path class="st0" d="M145.8,117.9c0,0,15.8-8,16.5-17.9s-3.5-14.2-5.4-15.9c-1.9-1.7-4.2-3.1-6.6-5.8c-3.7-4.1-3.7-10.5-0.4-14.6
	c0,0-12,4.7-12,16.4c0,3.1,1.7,8.7,8.8,17.7C153.9,106.8,148.1,116.6,145.8,117.9"/>
<path class="st0" d="M117.3,102.4c0,0,2-6.1-0.6-13.3c-2.2-4.8-3.9-5.9-5.7-7.4c-1.6-1.3-5.2-3.3-7-7.2c-1.8-4-0.5-8.5,2.8-10.3
	c3.2-1.8,6.8-0.8,6.8-0.8s8.1,1.4,10.7,14.3C127.1,90.5,118.7,100.5,117.3,102.4z"/>
<path class="st0" d="M99.8,117.9c0,0,15.8-8,16.5-17.9s-3.5-14.2-5.4-15.9c-1.9-1.7-4.2-3.1-6.6-5.8c-3.7-4.1-3.7-10.5-0.4-14.6
	c0,0-12,4.7-12,16.4c0,3.1,1.7,8.7,8.8,17.7C108,106.8,102.2,116.6,99.8,117.9"/>
<path class="st0" d="M71.4,102.4c0,0,2-6.1-0.6-13.3c-2.2-4.8-3.9-5.9-5.7-7.4c-1.6-1.3-5.2-3.3-7-7.2c-1.8-4-0.5-8.5,2.8-10.3
	c3.2-1.8,6.8-0.8,6.8-0.8s8.1,1.4,10.7,14.3C81.1,90.5,72.7,100.5,71.4,102.4z"/>
<path class="st0" d="M53.9,117.9c0,0,15.8-8,16.5-17.9S66.9,85.8,65,84.1c-1.9-1.7-4.2-3.1-6.6-5.8c-3.7-4.1-3.7-10.5-0.4-14.6
	c0,0-12,4.7-12,16.4c0,3.1,1.7,8.7,8.8,17.7C62,106.8,56.3,116.6,53.9,117.9"/>
<path class="st0" d="M25.5,102.4c0,0,2-6.1-0.6-13.3c-2.2-4.8-3.9-5.9-5.7-7.4c-1.6-1.3-5.2-3.3-7-7.2c-1.8-4-0.5-8.5,2.8-10.3
	c3.2-1.8,6.8-0.8,6.8-0.8s8.1,1.4,10.7,14.3C35.2,90.5,26.8,100.5,25.5,102.4z"/>
<path class="st0" d="M8,117.9c0,0,15.8-8,16.5-17.9S21,85.8,19.1,84.1c-1.9-1.7-4.2-3.1-6.6-5.8c-3.8-4.1-3.7-10.5-0.4-14.7
	c0,0-12,4.7-12,16.4c0,3.1,1.7,8.7,8.8,17.7C16.1,106.8,10.3,116.6,8,117.9"/>
<path class="st0" d="M163.3,216.4c0,0,2-6.1-0.6-13.3c-2.2-4.8-3.9-5.9-5.7-7.4c-1.6-1.3-5.2-3.3-7-7.2c-1.8-4-0.5-8.5,2.8-10.3
	c3.2-1.8,6.8-0.8,6.8-0.8s8.1,1.4,10.7,14.3C173,204.5,164.6,214.5,163.3,216.4z"/>
<path class="st0" d="M145.8,231.9c0,0,15.8-8,16.5-17.9s-3.5-14.2-5.4-15.9s-4.2-3.1-6.6-5.8c-3.7-4.1-3.7-10.5-0.4-14.6
	c0,0-12,4.7-12,16.4c0,3.1,1.7,8.7,8.8,17.7C153.9,220.8,148.1,230.6,145.8,231.9"/>
<path class="st0" d="M117.3,216.4c0,0,2-6.1-0.6-13.3c-2.2-4.8-3.9-5.9-5.7-7.4c-1.6-1.3-5.2-3.3-7-7.2c-1.8-4-0.5-8.5,2.8-10.3
	c3.2-1.8,6.8-0.8,6.8-0.8s8.1,1.4,10.7,14.3C127.1,204.5,118.7,214.5,117.3,216.4z"/>
<path class="st0" d="M99.8,231.9c0,0,15.8-8,16.5-17.9s-3.5-14.2-5.4-15.9s-4.2-3.1-6.6-5.8c-3.7-4.1-3.7-10.5-0.4-14.6
	c0,0-12,4.7-12,16.4c0,3.1,1.7,8.7,8.8,17.7C108,220.8,102.2,230.6,99.8,231.9"/>
<path class="st0" d="M71.4,216.4c0,0,2-6.1-0.6-13.3c-2.2-4.8-3.9-5.9-5.7-7.4c-1.6-1.3-5.2-3.3-7-7.2c-1.8-4-0.5-8.5,2.8-10.3
	c3.2-1.8,6.8-0.8,6.8-0.8s8.1,1.4,10.7,14.3C81.1,204.5,72.7,214.5,71.4,216.4z"/>
<path class="st0" d="M53.9,231.9c0,0,15.8-8,16.5-17.9s-3.5-14.2-5.4-15.9s-4.2-3.1-6.6-5.8c-3.7-4.1-3.7-10.5-0.4-14.6
	c0,0-12,4.7-12,16.4c0,3.1,1.7,8.7,8.8,17.7C62,220.8,56.3,230.6,53.9,231.9"/>
<path class="st0" d="M25.5,216.4c0,0,2-6.1-0.6-13.3c-2.2-4.8-3.9-5.9-5.7-7.4c-1.6-1.3-5.2-3.3-7-7.2c-1.8-4-0.5-8.5,2.8-10.3
	c3.2-1.8,6.8-0.8,6.8-0.8s8.1,1.4,10.7,14.3C35.2,204.5,26.8,214.5,25.5,216.4z"/>
<path class="st0" d="M8,231.9c0,0,15.8-8,16.5-17.9s-3.5-14.2-5.4-15.9s-4.2-3.1-6.6-5.8c-3.7-4.1-3.7-10.5-0.4-14.6
	c0,0-12,4.7-12,16.4c0,3.1,1.7,8.7,8.8,17.7C16.1,220.8,10.3,230.6,8,231.9"/>
<path class="st0" d="M24.7,129.5c0,0-2,6.1,0.6,13.3c2.2,4.8,3.9,5.9,5.7,7.4c1.6,1.3,5.2,3.3,7,7.2c1.8,4,0.5,8.5-2.8,10.3
	c-3.2,1.8-6.8,0.8-6.8,0.8s-8.1-1.4-10.7-14.3C15,141.4,23.3,131.4,24.7,129.5z"/>
<path class="st0" d="M42.2,114c0,0-15.8,8-16.5,17.9s3.5,14.2,5.4,15.9s4.2,3.1,6.6,5.8c3.7,4.1,3.7,10.5,0.4,14.6
	c0,0,12-4.7,12-16.4c0-3.1-1.7-8.7-8.8-17.7C34,125,39.8,115.3,42.2,114"/>
<path class="st0" d="M70.6,129.5c0,0-2,6.1,0.6,13.3c2.2,4.8,3.9,5.9,5.7,7.4c1.6,1.3,5.2,3.3,7,7.2c1.8,4,0.5,8.5-2.8,10.3
	c-3.2,1.8-6.8,0.8-6.8,0.8s-8.1-1.4-10.7-14.3C60.9,141.4,69.3,131.4,70.6,129.5z"/>
<path class="st0" d="M88.1,114c0,0-15.8,8-16.5,17.9s3.5,14.2,5.4,15.9s4.2,3.1,6.6,5.8c3.7,4.1,3.7,10.5,0.4,14.6
	c0,0,12-4.7,12-16.4c0-3.1-1.7-8.7-8.8-17.7C80,125,85.7,115.3,88.1,114"/>
<path class="st0" d="M116.5,129.5c0,0-2,6.1,0.6,13.3c2.2,4.8,3.9,5.9,5.7,7.4c1.6,1.3,5.2,3.3,7,7.2c1.8,4,0.5,8.5-2.8,10.3
	c-3.2,1.8-6.8,0.8-6.8,0.8s-8.1-1.4-10.7-14.3C106.8,141.4,115.2,131.4,116.5,129.5z"/>
<path class="st0" d="M134,114c0,0-15.8,8-16.5,17.9s3.5,14.2,5.4,15.9s4.2,3.1,6.6,5.8c3.7,4.1,3.7,10.5,0.4,14.6
	c0,0,12-4.7,12-16.4c0-3.1-1.7-8.7-8.8-17.7C125.9,125,131.7,115.3,134,114"/>
<path class="st0" d="M162.5,129.5c0,0-2,6.1,0.6,13.3c2.2,4.8,3.9,5.9,5.7,7.4c1.6,1.3,5.2,3.3,7,7.2c1.8,4,0.5,8.5-2.8,10.3
	c-3.2,1.8-6.8,0.8-6.8,0.8s-8.1-1.4-10.7-14.3C152.8,141.4,161.1,131.4,162.5,129.5z"/>
<path class="st0" d="M180,114c0,0-15.8,8-16.5,17.9s3.4,14.2,5.4,15.9c1.9,1.7,4.2,3.1,6.6,5.8c3.7,4.1,3.7,10.5,0.4,14.6
	c0,0,12-4.7,12-16.4c0-3.1-1.7-8.7-8.8-17.7C171.8,125,177.6,115.3,180,114"/>
<path class="st0" d="M24.7,247.5c0,0-2,6.1,0.6,13.3c2.2,4.8,3.9,5.9,5.7,7.4c1.6,1.3,5.2,3.3,7,7.2c1.8,4,0.5,8.5-2.8,10.3
	c-3.2,1.8-6.8,0.8-6.8,0.8s-8.1-1.4-10.7-14.3C15,259.4,23.3,249.4,24.7,247.5z"/>
<path class="st0" d="M42.2,232c0,0-15.8,8-16.5,17.9s3.5,14.2,5.4,15.9c1.9,1.7,4.2,3.1,6.6,5.8c3.7,4.1,3.7,10.5,0.4,14.6
	c0,0,12-4.7,12-16.4c0-3.1-1.7-8.7-8.8-17.7C34,243,39.8,233.3,42.2,232"/>
<path class="st0" d="M70.6,247.5c0,0-2,6.1,0.6,13.3c2.2,4.8,3.9,5.9,5.7,7.4c1.6,1.3,5.2,3.3,7,7.2c1.8,4,0.5,8.5-2.8,10.3
	c-3.2,1.8-6.8,0.8-6.8,0.8s-8.1-1.4-10.7-14.3C60.9,259.4,69.3,249.4,70.6,247.5z"/>
<path class="st0" d="M88.1,232c0,0-15.8,8-16.5,17.9s3.5,14.2,5.4,15.9c1.9,1.7,4.2,3.1,6.6,5.8c3.7,4.1,3.7,10.5,0.4,14.6
	c0,0,12-4.7,12-16.4c0-3.1-1.7-8.7-8.8-17.7C80,243,85.7,233.3,88.1,232"/>
<path class="st0" d="M116.5,247.5c0,0-2,6.1,0.6,13.3c2.2,4.8,3.9,5.9,5.7,7.4c1.6,1.3,5.2,3.3,7,7.2c1.8,4,0.5,8.5-2.8,10.3
	c-3.2,1.8-6.8,0.8-6.8,0.8s-8.1-1.4-10.7-14.3C106.8,259.4,115.2,249.4,116.5,247.5z"/>
<path class="st0" d="M134,232c0,0-15.8,8-16.5,17.9s3.5,14.2,5.4,15.9c1.9,1.7,4.2,3.1,6.6,5.8c3.7,4.1,3.7,10.5,0.4,14.6
	c0,0,12-4.7,12-16.4c0-3.1-1.7-8.7-8.8-17.7C125.9,243,131.7,233.3,134,232"/>
<path class="st0" d="M162.5,247.5c0,0-2,6.1,0.6,13.3c2.2,4.8,3.9,5.9,5.7,7.4c1.6,1.3,5.2,3.3,7,7.2c1.8,4,0.5,8.5-2.8,10.3
	c-3.2,1.8-6.8,0.8-6.8,0.8s-8.1-1.4-10.7-14.3C152.8,259.4,161.1,249.4,162.5,247.5z"/>
<path class="st0" d="M180,232c0,0-15.8,8-16.5,17.9s3.4,14.2,5.4,15.9c1.9,1.7,4.2,3.1,6.6,5.8c3.7,4.1,3.7,10.5,0.4,14.6
	c0,0,12-4.7,12-16.4c0-3.1-1.7-8.7-8.8-17.7C171.8,243,177.6,233.3,180,232"/>
<path class="st0" d="M163.3,334.4c0,0,2-6.1-0.6-13.3c-2.2-4.8-3.9-5.9-5.7-7.4c-1.6-1.3-5.2-3.3-7-7.2c-1.8-4-0.5-8.5,2.8-10.3
	c3.2-1.8,6.8-0.8,6.8-0.8s8.1,1.4,10.7,14.3C173,322.5,164.6,332.5,163.3,334.4z"/>
<path class="st0" d="M145.8,349.9c0,0,15.8-8,16.5-17.9s-3.5-14.2-5.4-15.9c-1.9-1.7-4.2-3.1-6.6-5.8c-3.7-4.1-3.7-10.5-0.4-14.6
	c0,0-12,4.7-12,16.4c0,3.1,1.7,8.7,8.8,17.7C153.9,338.8,148.1,348.6,145.8,349.9"/>
<path class="st0" d="M117.3,334.4c0,0,2-6.1-0.6-13.3c-2.2-4.8-3.9-5.9-5.7-7.4c-1.6-1.3-5.2-3.3-7-7.2c-1.8-4-0.5-8.5,2.8-10.3
	c3.2-1.8,6.8-0.8,6.8-0.8s8.1,1.4,10.7,14.3C127.1,322.5,118.7,332.5,117.3,334.4z"/>
<path class="st0" d="M99.8,349.9c0,0,15.8-8,16.5-17.9s-3.5-14.2-5.4-15.9c-1.9-1.7-4.2-3.1-6.6-5.8c-3.7-4.1-3.7-10.5-0.4-14.6
	c0,0-12,4.7-12,16.4c0,3.1,1.7,8.7,8.8,17.7C108,338.8,102.2,348.6,99.8,349.9"/>
<path class="st0" d="M71.4,334.4c0,0,2-6.1-0.6-13.3c-2.2-4.8-3.9-5.9-5.7-7.4c-1.6-1.3-5.2-3.3-7-7.2c-1.8-4-0.5-8.5,2.8-10.3
	c3.2-1.8,6.8-0.8,6.8-0.8s8.1,1.4,10.7,14.3C81.1,322.5,72.7,332.5,71.4,334.4z"/>
<path class="st0" d="M53.9,349.9c0,0,15.8-8,16.5-17.9s-3.5-14.2-5.4-15.9c-1.9-1.7-4.2-3.1-6.6-5.8c-3.7-4.1-3.7-10.5-0.4-14.6
	c0,0-12,4.7-12,16.4c0,3.1,1.7,8.7,8.8,17.7C62,338.8,56.3,348.6,53.9,349.9"/>
<path class="st0" d="M25.5,334.4c0,0,2-6.1-0.6-13.3c-2.2-4.8-3.9-5.9-5.7-7.4c-1.6-1.3-5.2-3.3-7-7.2c-1.8-4-0.5-8.5,2.8-10.3
	c3.2-1.8,6.8-0.8,6.8-0.8s8.1,1.4,10.7,14.3C35.2,322.5,26.8,332.5,25.5,334.4z"/>
<path class="st0" d="M8,349.9c0,0,15.8-8,16.5-17.9s-3.5-14.2-5.4-15.9c-1.9-1.7-4.2-3.1-6.6-5.8c-3.7-4.1-3.7-10.5-0.4-14.6
	c0,0-12,4.7-12,16.4c0,3.1,1.7,8.7,8.8,17.7C16.1,338.8,10.3,348.6,8,349.9"/>
<path class="st0" d="M163.3,448.4c0,0,2-6.1-0.6-13.3c-2.2-4.8-3.9-5.9-5.7-7.4c-1.6-1.3-5.2-3.3-7-7.2c-1.8-4-0.5-8.5,2.8-10.3
	c3.2-1.8,6.8-0.8,6.8-0.8s8.1,1.4,10.7,14.3C173,436.5,164.6,446.5,163.3,448.4z"/>
<path class="st0" d="M145.8,463.9c0,0,15.8-8,16.5-17.9s-3.5-14.2-5.4-15.9c-1.9-1.7-4.2-3.1-6.6-5.8c-3.7-4.1-3.7-10.5-0.4-14.6
	c0,0-12,4.7-12,16.4c0,3.1,1.7,8.7,8.8,17.7C153.9,452.8,148.1,462.6,145.8,463.9"/>
<path class="st0" d="M117.3,448.4c0,0,2-6.1-0.6-13.3c-2.2-4.8-3.9-5.9-5.7-7.4c-1.6-1.3-5.2-3.3-7-7.2c-1.8-4-0.5-8.5,2.8-10.3
	c3.2-1.8,6.8-0.8,6.8-0.8s8.1,1.4,10.7,14.3C127.1,436.5,118.7,446.5,117.3,448.4z"/>
<path class="st0" d="M99.8,463.9c0,0,15.8-8,16.5-17.9s-3.5-14.2-5.4-15.9c-1.9-1.7-4.2-3.1-6.6-5.8c-3.7-4.1-3.7-10.5-0.4-14.6
	c0,0-12,4.7-12,16.4c0,3.1,1.7,8.7,8.8,17.7C108,452.8,102.2,462.6,99.8,463.9"/>
<path class="st0" d="M71.4,448.4c0,0,2-6.1-0.6-13.3c-2.2-4.8-3.9-5.9-5.7-7.4c-1.6-1.3-5.2-3.3-7-7.2c-1.8-4-0.5-8.5,2.8-10.3
	c3.2-1.8,6.8-0.8,6.8-0.8s8.1,1.4,10.7,14.3C81.1,436.5,72.7,446.5,71.4,448.4z"/>
<path class="st0" d="M53.9,463.9c0,0,15.8-8,16.5-17.9s-3.5-14.2-5.4-15.9c-1.9-1.7-4.2-3.1-6.6-5.8c-3.7-4.1-3.7-10.5-0.4-14.6
	c0,0-12,4.7-12,16.4c0,3.1,1.7,8.7,8.8,17.7C62,452.8,56.3,462.6,53.9,463.9"/>
<path class="st0" d="M25.5,448.4c0,0,2-6.1-0.6-13.3c-2.2-4.8-3.9-5.9-5.7-7.4c-1.6-1.3-5.2-3.3-7-7.2c-1.8-4-0.5-8.5,2.8-10.3
	c3.2-1.8,6.8-0.8,6.8-0.8s8.1,1.4,10.7,14.3C35.2,436.5,26.8,446.5,25.5,448.4z"/>
<path class="st0" d="M8,463.9c0,0,15.8-8,16.5-17.9s-3.5-14.2-5.4-15.9c-1.9-1.7-4.2-3.1-6.6-5.8c-3.7-4.1-3.7-10.5-0.4-14.6
	c0,0-12,4.7-12,16.4c0,3.1,1.7,8.7,8.8,17.7C16.1,452.8,10.3,462.6,8,463.9"/>
<path class="st0" d="M24.7,361.5c0,0-2,6.1,0.6,13.3c2.2,4.8,3.9,5.9,5.7,7.4c1.6,1.3,5.2,3.3,7,7.2c1.8,4,0.5,8.5-2.8,10.3
	c-3.2,1.8-6.8,0.8-6.8,0.8s-8.1-1.4-10.7-14.3C15,373.4,23.3,363.4,24.7,361.5z"/>
<path class="st0" d="M42.2,346c0,0-15.8,8-16.5,17.9s3.5,14.2,5.4,15.9c1.9,1.7,4.2,3.1,6.6,5.8c3.7,4.1,3.7,10.5,0.4,14.6
	c0,0,12-4.7,12-16.4c0-3.1-1.7-8.7-8.8-17.7C34,357,39.8,347.3,42.2,346"/>
<path class="st0" d="M70.6,361.5c0,0-2,6.1,0.6,13.3c2.2,4.8,3.9,5.9,5.7,7.4c1.6,1.3,5.2,3.3,7,7.2c1.8,4,0.5,8.5-2.8,10.3
	c-3.2,1.8-6.8,0.8-6.8,0.8s-8.1-1.4-10.7-14.3C60.9,373.4,69.3,363.4,70.6,361.5z"/>
<path class="st0" d="M88.1,346c0,0-15.8,8-16.5,17.9s3.5,14.2,5.4,15.9c1.9,1.7,4.2,3.1,6.6,5.8c3.7,4.1,3.7,10.5,0.4,14.6
	c0,0,12-4.7,12-16.4c0-3.1-1.7-8.7-8.8-17.7C80,357,85.7,347.3,88.1,346"/>
<path class="st0" d="M116.5,361.5c0,0-2,6.1,0.6,13.3c2.2,4.8,3.9,5.9,5.7,7.4c1.6,1.3,5.2,3.3,7,7.2c1.8,4,0.5,8.5-2.8,10.3
	c-3.2,1.8-6.8,0.8-6.8,0.8s-8.1-1.4-10.7-14.3C106.8,373.4,115.2,363.4,116.5,361.5z"/>
<path class="st0" d="M134,346c0,0-15.8,8-16.5,17.9s3.5,14.2,5.4,15.9c1.9,1.7,4.2,3.1,6.6,5.8c3.7,4.1,3.7,10.5,0.4,14.6
	c0,0,12-4.7,12-16.4c0-3.1-1.7-8.7-8.8-17.7C125.9,357,131.7,347.3,134,346"/>
<path class="st0" d="M162.5,361.5c0,0-2,6.1,0.6,13.3c2.2,4.8,3.9,5.9,5.7,7.4c1.6,1.3,5.2,3.3,7,7.2c1.8,4,0.5,8.5-2.8,10.3
	c-3.2,1.8-6.8,0.8-6.8,0.8s-8.1-1.4-10.7-14.3C152.8,373.4,161.1,363.4,162.5,361.5z"/>
<path class="st0" d="M180,346c0,0-15.8,8-16.5,17.9s3.4,14.2,5.4,15.9c1.9,1.7,4.2,3.1,6.6,5.8c3.7,4.1,3.7,10.5,0.4,14.6
	c0,0,12-4.7,12-16.4c0-3.1-1.7-8.7-8.8-17.7C171.8,357,177.6,347.3,180,346"/>
<path class="st0" d="M24.7,479.5c0,0-2,6.1,0.6,13.3c2.2,4.8,3.9,5.9,5.7,7.4c1.6,1.3,5.2,3.3,7,7.2c1.8,4,0.5,8.5-2.8,10.3
	c-3.2,1.8-6.8,0.8-6.8,0.8s-8.1-1.4-10.7-14.3C15,491.4,23.3,481.4,24.7,479.5z"/>
<path class="st0" d="M42.2,464c0,0-15.8,8-16.5,17.9s3.5,14.2,5.4,15.9c1.9,1.7,4.2,3.1,6.6,5.8c3.7,4.1,3.7,10.5,0.4,14.6
	c0,0,12-4.7,12-16.4c0-3.1-1.7-8.7-8.8-17.7C34,475,39.8,465.3,42.2,464"/>
<path class="st0" d="M70.6,479.5c0,0-2,6.1,0.6,13.3c2.2,4.8,3.9,5.9,5.7,7.4c1.6,1.3,5.2,3.3,7,7.2c1.8,4,0.5,8.5-2.8,10.3
	c-3.2,1.8-6.8,0.8-6.8,0.8s-8.1-1.4-10.7-14.3C60.9,491.4,69.3,481.4,70.6,479.5z"/>
<path class="st0" d="M88.1,464c0,0-15.8,8-16.5,17.9s3.5,14.2,5.4,15.9c1.9,1.7,4.2,3.1,6.6,5.8c3.7,4.1,3.7,10.5,0.4,14.6
	c0,0,12-4.7,12-16.4c0-3.1-1.7-8.7-8.8-17.7C80,475,85.7,465.3,88.1,464"/>
<path class="st0" d="M116.5,479.5c0,0-2,6.1,0.6,13.3c2.2,4.8,3.9,5.9,5.7,7.4c1.6,1.3,5.2,3.3,7,7.2c1.8,4,0.5,8.5-2.8,10.3
	c-3.2,1.8-6.8,0.8-6.8,0.8s-8.1-1.4-10.7-14.3C106.8,491.4,115.2,481.4,116.5,479.5z"/>
<path class="st0" d="M134,464c0,0-15.8,8-16.5,17.9s3.5,14.2,5.4,15.9c1.9,1.7,4.2,3.1,6.6,5.8c3.7,4.1,3.7,10.5,0.4,14.6
	c0,0,12-4.7,12-16.4c0-3.1-1.7-8.7-8.8-17.7C125.9,475,131.7,465.3,134,464"/>
<path class="st0" d="M162.5,479.5c0,0-2,6.1,0.6,13.3c2.2,4.8,3.9,5.9,5.7,7.4c1.6,1.3,5.2,3.3,7,7.2c1.8,4,0.5,8.5-2.8,10.3
	c-3.2,1.8-6.8,0.8-6.8,0.8s-8.1-1.4-10.7-14.3C152.8,491.4,161.1,481.4,162.5,479.5z"/>
<path class="st0" d="M180,464c0,0-15.8,8-16.5,17.9s3.4,14.2,5.4,15.9c1.9,1.7,4.2,3.1,6.6,5.8c3.7,4.1,3.7,10.5,0.4,14.6
	c0,0,12-4.7,12-16.4c0-3.1-1.7-8.7-8.8-17.7C171.8,475,177.6,465.3,180,464"/>
<path class="st0" d="M163.3,566.4c0,0,2-6.1-0.6-13.3c-2.2-4.8-3.9-5.9-5.7-7.4c-1.6-1.3-5.2-3.3-7-7.2c-1.8-4-0.5-8.5,2.8-10.3
	c3.2-1.8,6.8-0.8,6.8-0.8s8.1,1.4,10.7,14.3C173,554.5,164.6,564.5,163.3,566.4z"/>
<path class="st0" d="M145.8,581.9c0,0,15.8-8,16.5-17.9s-3.5-14.2-5.4-15.9s-4.2-3.1-6.6-5.8c-3.7-4.1-3.7-10.5-0.4-14.6
	c0,0-12,4.7-12,16.4c0,3.1,1.7,8.7,8.8,17.7C153.9,570.8,148.1,580.6,145.8,581.9"/>
<path class="st0" d="M117.3,566.4c0,0,2-6.1-0.6-13.3c-2.2-4.8-3.9-5.9-5.7-7.4c-1.6-1.3-5.2-3.3-7-7.2c-1.8-4-0.5-8.5,2.8-10.3
	c3.2-1.8,6.8-0.8,6.8-0.8s8.1,1.4,10.7,14.3C127.1,554.5,118.7,564.5,117.3,566.4z"/>
<path class="st0" d="M99.8,581.9c0,0,15.8-8,16.5-17.9s-3.5-14.2-5.4-15.9s-4.2-3.1-6.6-5.8c-3.7-4.1-3.7-10.5-0.4-14.6
	c0,0-12,4.7-12,16.4c0,3.1,1.7,8.7,8.8,17.7C108,570.8,102.2,580.6,99.8,581.9"/>
<path class="st0" d="M71.4,566.4c0,0,2-6.1-0.6-13.3c-2.2-4.8-3.9-5.9-5.7-7.4c-1.6-1.3-5.2-3.3-7-7.2c-1.8-4-0.5-8.5,2.8-10.3
	c3.2-1.8,6.8-0.8,6.8-0.8s8.1,1.4,10.7,14.3C81.1,554.5,72.7,564.5,71.4,566.4z"/>
<path class="st0" d="M53.9,581.9c0,0,15.8-8,16.5-17.9s-3.5-14.2-5.4-15.9s-4.2-3.1-6.6-5.8c-3.7-4.1-3.7-10.5-0.4-14.6
	c0,0-12,4.7-12,16.4c0,3.1,1.7,8.7,8.8,17.7C62,570.8,56.3,580.6,53.9,581.9"/>
<path class="st0" d="M25.5,566.4c0,0,2-6.1-0.6-13.3c-2.2-4.8-3.9-5.9-5.7-7.4c-1.6-1.3-5.2-3.3-7-7.2c-1.8-4-0.5-8.5,2.8-10.3
	c3.2-1.8,6.8-0.8,6.8-0.8s8.1,1.4,10.7,14.3C35.2,554.5,26.8,564.5,25.5,566.4z"/>
<path class="st0" d="M8,581.9c0,0,15.8-8,16.5-17.9s-3.5-14.2-5.4-15.9s-4.2-3.1-6.6-5.8c-3.7-4.1-3.7-10.5-0.4-14.6
	c0,0-12,4.7-12,16.4c0,3.1,1.7,8.7,8.8,17.7C16.1,570.8,10.3,580.6,8,581.9"/>
<path class="st0" d="M163.3,680.4c0,0,2-6.1-0.6-13.3c-2.2-4.8-3.9-5.9-5.7-7.4c-1.6-1.3-5.2-3.3-7-7.2c-1.8-4-0.5-8.5,2.8-10.3
	c3.2-1.8,6.8-0.8,6.8-0.8s8.1,1.4,10.7,14.3C173,668.5,164.6,678.5,163.3,680.4z"/>
<path class="st0" d="M145.8,695.9c0,0,15.8-8,16.5-17.9s-3.5-14.2-5.4-15.9s-4.2-3.1-6.6-5.8c-3.7-4.1-3.7-10.5-0.4-14.6
	c0,0-12,4.7-12,16.4c0,3.1,1.7,8.7,8.8,17.7C153.9,684.8,148.1,694.6,145.8,695.9"/>
<path class="st0" d="M117.3,680.4c0,0,2-6.1-0.6-13.3c-2.2-4.8-3.9-5.9-5.7-7.4c-1.6-1.3-5.2-3.3-7-7.2c-1.8-4-0.5-8.5,2.8-10.3
	c3.2-1.8,6.8-0.8,6.8-0.8s8.1,1.4,10.7,14.3C127.1,668.5,118.7,678.5,117.3,680.4z"/>
<path class="st0" d="M99.8,695.9c0,0,15.8-8,16.5-17.9s-3.5-14.2-5.4-15.9s-4.2-3.1-6.6-5.8c-3.7-4.1-3.7-10.5-0.4-14.6
	c0,0-12,4.7-12,16.4c0,3.1,1.7,8.7,8.8,17.7C108,684.8,102.2,694.6,99.8,695.9"/>
<path class="st0" d="M71.4,680.4c0,0,2-6.1-0.6-13.3c-2.2-4.8-3.9-5.9-5.7-7.4c-1.6-1.3-5.2-3.3-7-7.2c-1.8-4-0.5-8.5,2.8-10.3
	c3.2-1.8,6.8-0.8,6.8-0.8s8.1,1.4,10.7,14.3C81.1,668.5,72.7,678.5,71.4,680.4z"/>
<path class="st0" d="M53.9,695.9c0,0,15.8-8,16.5-17.9s-3.5-14.2-5.4-15.9s-4.2-3.1-6.6-5.8c-3.7-4.1-3.7-10.5-0.4-14.6
	c0,0-12,4.7-12,16.4c0,3.1,1.7,8.7,8.8,17.7C62,684.8,56.3,694.6,53.9,695.9"/>
<path class="st0" d="M25.5,680.4c0,0,2-6.1-0.6-13.3c-2.2-4.8-3.9-5.9-5.7-7.4c-1.6-1.3-5.2-3.3-7-7.2c-1.8-4-0.5-8.5,2.8-10.3
	c3.2-1.8,6.8-0.8,6.8-0.8s8.1,1.4,10.7,14.3C35.2,668.5,26.8,678.5,25.5,680.4z"/>
<path class="st0" d="M8,695.9c0,0,15.8-8,16.5-17.9s-3.5-14.2-5.4-15.9s-4.2-3.1-6.6-5.8c-3.7-4.1-3.7-10.5-0.4-14.6
	c0,0-12,4.7-12,16.4c0,3.1,1.7,8.7,8.8,17.7C16.1,684.8,10.3,694.6,8,695.9"/>
<path class="st0" d="M24.7,593.5c0,0-2,6.1,0.6,13.3c2.2,4.8,3.9,5.9,5.7,7.4c1.6,1.3,5.2,3.3,7,7.2c1.8,4,0.5,8.5-2.8,10.3
	c-3.2,1.8-6.8,0.8-6.8,0.8s-8.1-1.4-10.7-14.3C15,605.4,23.3,595.4,24.7,593.5z"/>
<path class="st0" d="M42.2,578c0,0-15.8,8-16.5,17.9s3.5,14.2,5.4,15.9s4.2,3.1,6.6,5.8c3.7,4.1,3.7,10.5,0.4,14.6
	c0,0,12-4.7,12-16.4c0-3.1-1.7-8.7-8.8-17.7C34,589,39.8,579.3,42.2,578"/>
<path class="st0" d="M70.6,593.5c0,0-2,6.1,0.6,13.3c2.2,4.8,3.9,5.9,5.7,7.4c1.6,1.3,5.2,3.3,7,7.2c1.8,4,0.5,8.5-2.8,10.3
	c-3.2,1.8-6.8,0.8-6.8,0.8s-8.1-1.4-10.7-14.3C60.9,605.4,69.3,595.4,70.6,593.5z"/>
<path class="st0" d="M88.1,578c0,0-15.8,8-16.5,17.9s3.5,14.2,5.4,15.9s4.2,3.1,6.6,5.8c3.7,4.1,3.7,10.5,0.4,14.6
	c0,0,12-4.7,12-16.4c0-3.1-1.7-8.7-8.8-17.7C80,589,85.7,579.3,88.1,578"/>
<path class="st0" d="M116.5,593.5c0,0-2,6.1,0.6,13.3c2.2,4.8,3.9,5.9,5.7,7.4c1.6,1.3,5.2,3.3,7,7.2c1.8,4,0.5,8.5-2.8,10.3
	c-3.2,1.8-6.8,0.8-6.8,0.8s-8.1-1.4-10.7-14.3C106.8,605.4,115.2,595.4,116.5,593.5z"/>
<path class="st0" d="M134,578c0,0-15.8,8-16.5,17.9s3.5,14.2,5.4,15.9s4.2,3.1,6.6,5.8c3.7,4.1,3.7,10.5,0.4,14.6
	c0,0,12-4.7,12-16.4c0-3.1-1.7-8.7-8.8-17.7C125.9,589,131.7,579.3,134,578"/>
<path class="st0" d="M162.5,593.5c0,0-2,6.1,0.6,13.3c2.2,4.8,3.9,5.9,5.7,7.4c1.6,1.3,5.2,3.3,7,7.2c1.8,4,0.5,8.5-2.8,10.3
	c-3.2,1.8-6.8,0.8-6.8,0.8s-8.1-1.4-10.7-14.3C152.8,605.4,161.1,595.4,162.5,593.5z"/>
<path class="st0" d="M180,578c0,0-15.8,8-16.5,17.9s3.4,14.2,5.4,15.9c1.9,1.7,4.2,3.1,6.6,5.8c3.7,4.1,3.7,10.5,0.4,14.6
	c0,0,12-4.7,12-16.4c0-3.1-1.7-8.7-8.8-17.7C171.8,589,177.6,579.3,180,578"/>
</svg>
